# Blender v3.0.1 OBJ File: ''
# www.blender.org
mtllib model2.mtl
v -0.080000 -0.015000 0.105000
v -0.080000 0.015000 0.105000
v -0.080000 -0.015000 -0.105000
v -0.080000 0.015000 -0.105000
v 0.080000 -0.015000 0.105000
v 0.080000 0.015000 0.105000
v 0.080000 -0.015000 -0.105000
v 0.080000 0.015000 -0.105000
vt 0.823592 0.066771
vt 0.776254 0.964927
vt 0.776195 0.066553
vt 0.987381 0.212123
vt 0.940613 0.896479
vt 0.940498 0.211979
vt 0.737304 0.066268
vt 0.690201 0.965091
vt 0.690096 0.066336
vt 0.906234 0.224693
vt 0.859721 0.909157
vt 0.859650 0.224554
vt 0.277275 0.064771
vt 0.021558 0.964163
vt 0.021038 0.068934
vt 0.623351 0.066793
vt 0.367428 0.964816
vt 0.367387 0.066543
vt 0.823565 0.964829
vt 0.987444 0.896964
vt 0.737187 0.965930
vt 0.906007 0.909375
vt 0.277275 0.962775
vt 0.623447 0.965013
vn -1.0000 0.0000 0.0000
vn 0.0000 0.0000 -1.0000
vn 1.0000 0.0000 0.0000
vn 0.0000 0.0000 1.0000
vn 0.0000 -1.0000 0.0000
vn 0.0000 1.0000 0.0000
usemtl Material.001
s off
f 2/1/1 3/2/1 1/3/1
f 4/4/2 7/5/2 3/6/2
f 8/7/3 5/8/3 7/9/3
f 6/10/4 1/11/4 5/12/4
f 7/13/5 1/14/5 3/15/5
f 4/16/6 6/17/6 8/18/6
f 2/1/1 4/19/1 3/2/1
f 4/4/2 8/20/2 7/5/2
f 8/7/3 6/21/3 5/8/3
f 6/10/4 2/22/4 1/11/4
f 7/13/5 5/23/5 1/14/5
f 4/16/6 2/24/6 6/17/6
